<?xml version="1.0" standalone="no"?>
<!DOCTYPE svg PUBLIC "-//W3C//DTD SVG 20010904//EN"
 "http://www.w3.org/TR/2001/REC-SVG-20010904/DTD/svg10.dtd">
<svg version="1.0" xmlns="http://www.w3.org/2000/svg"
 width="964.000000pt" height="964.000000pt" viewBox="0 0 964.000000 964.000000"
 preserveAspectRatio="xMidYMid meet">
<metadata>
Created by potrace 1.14, written by Peter Selinger 2001-2017
</metadata>
<g transform="translate(0.000000,964.000000) scale(0.100000,-0.100000)"
fill="#000000" stroke="none">
<path d="M2135 9624 c-66 -12 -139 -29 -245 -59 -65 -18 -240 -95 -240 -105 0
-4 -8 -10 -17 -14 -87 -29 -245 -171 -348 -311 -95 -129 -185 -343 -220 -520
-2 -11 -6 -31 -9 -45 -7 -33 -15 -90 -24 -170 -9 -83 -8 -444 1 -530 24 -220
31 -264 64 -425 13 -66 27 -131 29 -145 3 -14 14 -61 25 -105 12 -44 22 -87
24 -95 2 -8 8 -26 13 -40 5 -14 10 -28 11 -32 0 -5 1 -9 2 -10 0 -2 2 -11 5
-20 6 -26 10 -41 16 -58 3 -8 24 -73 47 -145 23 -71 50 -152 60 -180 64 -170
84 -222 92 -240 4 -11 24 -59 43 -106 20 -48 47 -108 60 -135 13 -27 22 -52
20 -56 -3 -4 0 -8 5 -8 6 0 11 -5 11 -12 0 -35 298 -602 382 -725 15 -23 28
-44 28 -47 0 -2 21 -35 46 -72 25 -36 48 -72 50 -79 3 -7 -35 -52 -84 -101
-48 -49 -104 -109 -124 -134 -62 -79 -178 -253 -178 -267 0 -7 -3 -13 -7 -13
-5 0 -13 -10 -19 -23 -5 -12 -31 -61 -57 -109 -26 -48 -47 -94 -47 -103 0 -8
-4 -15 -10 -15 -5 0 -10 -5 -10 -11 0 -5 -12 -36 -26 -67 -51 -112 -181 -492
-176 -514 1 -4 -3 -20 -9 -35 -6 -15 -22 -80 -36 -143 -31 -144 -31 -146 -39
-195 -7 -42 -7 -45 -23 -140 -17 -103 -30 -219 -46 -395 -26 -280 -25 -783 1
-915 2 -11 6 -36 9 -55 3 -19 7 -44 9 -55 2 -11 11 -56 20 -99 9 -44 20 -84
24 -90 3 -6 8 -20 9 -31 2 -11 6 -27 10 -35 3 -8 7 -17 8 -20 13 -54 29 -93
84 -213 34 -74 133 -250 151 -267 3 -3 25 -32 50 -65 147 -196 377 -393 614
-525 75 -41 252 -130 260 -130 3 0 25 -9 49 -19 78 -35 307 -115 353 -124 10
-2 26 -7 34 -10 20 -8 247 -65 285 -71 17 -3 62 -12 100 -20 92 -18 135 -27
165 -31 57 -8 127 -17 155 -20 17 -2 41 -6 55 -9 14 -3 52 -8 85 -11 33 -3 74
-8 90 -9 277 -31 533 -41 1025 -40 412 0 629 5 805 19 131 11 143 13 153 19 6
3 13 2 17 -4 4 -6 11 -7 17 -4 6 4 22 8 37 9 60 5 222 25 251 30 8 1 40 6 70
10 30 4 64 9 75 11 11 2 40 7 65 10 25 3 48 8 52 10 4 3 22 7 40 9 18 3 43 7
56 10 58 13 69 16 97 21 17 3 51 11 78 19 26 8 47 12 47 10 0 -2 17 3 38 12
20 8 38 15 40 14 2 -1 49 8 70 15 7 2 14 4 17 4 3 0 24 8 47 16 24 9 51 17 60
19 9 2 26 9 37 15 12 6 21 8 21 4 0 -3 6 -2 13 3 6 5 32 17 57 26 25 9 59 22
75 28 17 7 32 13 35 13 5 1 65 30 170 79 86 41 300 170 336 202 6 5 22 17 34
25 12 8 32 23 43 33 153 128 226 201 324 328 49 64 153 223 153 235 0 3 10 20
22 37 13 18 23 34 22 37 -2 13 9 40 17 40 5 0 9 7 9 15 0 8 11 39 25 70 13 30
24 56 24 58 0 1 2 9 5 17 16 47 48 159 52 180 3 14 7 33 10 42 10 34 33 164
36 206 1 17 5 32 8 32 17 0 17 810 0 810 -3 0 -5 21 -6 48 -1 49 -11 175 -19
227 -6 40 -16 114 -19 145 -2 14 -9 59 -16 100 -7 41 -14 84 -15 95 -1 11 -4
27 -8 35 -3 8 -11 44 -17 80 -7 36 -21 101 -32 145 -11 44 -21 87 -23 95 -18
81 -120 384 -157 471 -9 19 -21 48 -28 64 -8 17 -13 33 -12 38 1 4 -2 7 -8 7
-5 0 -10 6 -10 14 0 16 -86 185 -139 271 -20 33 -40 68 -46 77 -59 100 -202
275 -292 359 l-60 55 23 30 c13 16 24 35 24 42 0 6 4 12 8 12 5 0 15 12 23 28
7 15 27 47 44 72 16 25 35 54 41 65 6 11 38 69 72 128 34 60 62 112 62 117 0
5 3 10 8 12 4 2 30 48 57 103 28 55 54 103 58 106 5 3 8 9 8 13 -1 3 21 52 48
109 27 56 59 127 72 157 12 30 28 58 33 62 6 4 8 8 4 8 -3 0 9 37 28 83 20 45
39 91 44 102 17 42 62 160 64 170 1 6 7 20 14 32 7 12 13 30 15 40 1 10 5 23
8 28 7 11 50 143 53 160 1 6 5 15 8 21 4 6 12 28 17 50 5 21 21 77 36 124 14
47 27 94 30 105 2 11 16 67 31 125 15 58 28 114 30 125 2 11 8 43 14 70 6 28
13 64 15 80 3 17 8 44 12 60 3 17 7 41 8 55 1 14 6 45 10 70 4 25 9 59 11 75
1 17 6 59 10 95 16 143 9 549 -12 653 -2 12 -8 47 -14 77 -5 30 -15 71 -21 90
-5 19 -12 46 -15 60 -2 14 -8 34 -13 45 -5 11 -19 47 -32 80 -12 33 -26 64
-31 69 -4 6 -8 18 -8 28 0 10 -4 18 -10 18 -5 0 -10 6 -10 13 0 6 -24 48 -53
91 -28 44 -56 87 -62 95 -11 17 -151 157 -181 181 -77 62 -292 180 -328 180
-7 0 -16 3 -20 8 -4 4 -11 7 -14 8 -4 0 -14 3 -22 7 -47 18 -94 29 -237 57
-120 23 -322 21 -438 -4 -94 -20 -277 -100 -326 -142 -8 -8 -20 -14 -26 -14
-6 0 -13 -3 -15 -7 -1 -5 -23 -24 -48 -44 -80 -65 -220 -210 -220 -229 0 -5
-6 -13 -13 -17 -15 -10 -115 -159 -148 -223 -13 -25 -27 -47 -30 -50 -24 -20
-153 -323 -209 -490 -18 -52 -35 -104 -40 -115 -9 -24 -43 -139 -42 -142 1 -2
-5 -21 -13 -44 -8 -22 -14 -43 -13 -47 1 -4 -1 -14 -5 -22 -3 -8 -9 -28 -13
-45 -7 -30 -9 -39 -18 -85 -5 -21 -37 -168 -52 -235 -2 -11 -6 -31 -9 -45 -3
-14 -7 -36 -10 -50 -3 -14 -8 -41 -10 -60 -3 -19 -7 -44 -9 -55 -2 -11 -8 -45
-12 -75 -4 -30 -9 -57 -9 -60 -1 -3 -5 -32 -9 -65 -5 -33 -10 -69 -12 -80 -5
-24 -16 -109 -19 -150 -2 -16 -4 -30 -5 -30 0 0 -3 -22 -5 -49 -2 -28 -6 -68
-9 -90 -8 -60 -16 -142 -21 -216 -3 -36 -7 -92 -10 -125 -13 -161 -26 -493
-28 -692 -1 -127 -7 -150 -31 -126 -3 4 -12 8 -19 9 -7 1 -25 5 -42 8 -64 13
-92 17 -250 31 -78 8 -252 15 -389 17 l-110 2 29 20 c133 96 201 152 265 217
41 42 80 83 85 90 39 51 77 114 98 160 24 52 30 68 44 121 4 13 7 75 7 138 0
90 -5 128 -21 176 -58 169 -146 300 -319 472 -62 61 -115 112 -118 112 -3 0
-15 8 -26 18 -54 48 -71 61 -150 118 -76 54 -127 88 -240 159 -34 21 -69 42
-157 91 -42 24 -73 23 -73 -2 0 -8 26 -54 57 -102 32 -48 58 -89 58 -92 0 -3
9 -18 19 -35 54 -85 80 -133 143 -259 48 -96 73 -149 78 -166 1 -3 9 -23 18
-44 10 -22 20 -50 23 -63 4 -13 9 -23 13 -23 4 0 8 -6 8 -12 0 -7 12 -47 26
-89 28 -82 72 -252 81 -309 2 -19 7 -46 10 -60 3 -14 9 -76 12 -139 4 -63 7
-122 9 -130 1 -9 0 -20 -3 -25 -2 -4 -6 -36 -8 -70 -3 -69 -10 -113 -26 -171
-6 -22 -13 -49 -15 -59 -7 -38 -21 -44 -111 -44 -48 0 -89 -1 -92 -2 -3 -1
-50 -3 -105 -5 -55 -2 -125 -6 -155 -9 -30 -3 -82 -8 -115 -11 -56 -6 -163
-26 -210 -40 -20 -6 -21 -2 -20 117 0 68 -3 140 -6 161 -4 20 -2 40 2 43 5 3
7 10 3 15 -3 6 -8 61 -10 122 -2 62 -6 141 -8 177 -4 58 -12 182 -21 310 -1
25 -6 65 -9 90 -3 25 -8 72 -11 105 -6 80 -24 241 -30 268 -2 12 -7 42 -10 67
-7 63 -16 131 -21 160 -2 14 -7 41 -10 60 -3 19 -10 62 -16 95 -6 33 -12 67
-13 75 -1 8 -5 31 -9 50 -4 19 -8 42 -10 50 -1 8 -5 29 -9 45 -4 17 -9 41 -11
55 -2 14 -16 72 -31 130 -14 58 -27 114 -29 125 -8 45 -94 334 -107 357 -5 10
-9 23 -9 29 0 14 -97 263 -119 304 -8 17 -16 32 -16 35 -3 12 -65 133 -75 144
-5 7 -8 15 -5 18 3 3 -1 11 -10 18 -8 7 -15 19 -15 26 0 8 -4 14 -10 14 -5 0
-10 5 -10 12 0 21 -127 201 -195 277 -47 52 -140 142 -175 169 -94 72 -239
152 -305 168 -17 4 -34 10 -40 14 -5 4 -32 11 -60 16 -27 4 -59 9 -70 11 -61
11 -279 9 -350 -3z"/>
</g>
</svg>
