<?xml version="1.0" standalone="no"?>
<!DOCTYPE svg PUBLIC "-//W3C//DTD SVG 20010904//EN"
 "http://www.w3.org/TR/2001/REC-SVG-20010904/DTD/svg10.dtd">
<svg version="1.0" xmlns="http://www.w3.org/2000/svg"
 width="958.000000pt" height="958.000000pt" viewBox="0 0 958.000000 958.000000"
 preserveAspectRatio="xMidYMid meet">
<metadata>
Created by potrace 1.14, written by Peter Selinger 2001-2017
</metadata>
<g transform="translate(0.000000,958.000000) scale(0.100000,-0.100000)"
fill="#000000" stroke="none">
<path d="M2349 9576 c-2 -2 -18 -6 -36 -9 -58 -9 -217 -59 -268 -84 -145 -72
-264 -182 -355 -328 -27 -42 -53 -97 -50 -104 1 -2 -3 -7 -8 -10 -29 -18 -123
-351 -126 -443 0 -10 -3 -18 -6 -18 -3 0 -5 -12 -6 -27 0 -16 -5 -66 -10 -113
-10 -92 -10 -527 0 -625 3 -33 8 -82 10 -110 16 -169 22 -218 31 -265 2 -14 7
-45 9 -70 3 -25 8 -56 11 -70 11 -54 19 -106 19 -132 1 -16 5 -28 9 -28 5 0 6
-4 3 -8 -3 -5 -1 -24 4 -43 5 -19 11 -47 14 -64 2 -16 10 -55 16 -85 6 -30 13
-66 16 -80 2 -14 7 -38 11 -55 4 -16 7 -32 8 -35 11 -53 22 -99 25 -102 1 -2
3 -12 4 -23 2 -11 11 -49 20 -85 9 -36 18 -74 21 -85 2 -11 13 -56 25 -100 11
-44 23 -90 25 -102 3 -12 10 -34 15 -48 5 -14 7 -25 5 -25 -3 0 1 -17 9 -37 7
-21 19 -58 26 -83 7 -25 16 -56 20 -70 4 -14 13 -45 20 -70 7 -25 15 -52 18
-60 3 -8 6 -17 7 -20 25 -88 125 -402 136 -425 6 -12 11 -27 13 -35 2 -8 6
-22 9 -30 41 -111 62 -168 63 -180 2 -8 7 -23 12 -35 19 -40 42 -106 42 -121
0 -16 -98 -166 -112 -172 -5 -2 -8 -10 -8 -18 0 -8 -9 -23 -20 -34 -11 -11
-18 -20 -14 -20 3 0 -6 -15 -20 -33 -15 -19 -26 -39 -26 -45 0 -7 -3 -12 -7
-12 -5 0 -13 -10 -19 -23 -6 -12 -51 -89 -99 -172 -90 -156 -278 -529 -278
-552 0 -7 -4 -13 -9 -13 -4 0 -8 -8 -8 -18 0 -10 -4 -22 -8 -27 -16 -18 -116
-279 -147 -380 -10 -33 -22 -65 -26 -70 -4 -6 -10 -22 -13 -35 -3 -14 -14 -56
-26 -95 -11 -38 -22 -79 -25 -90 -2 -11 -11 -47 -20 -80 -8 -33 -18 -76 -21
-95 -3 -19 -8 -38 -9 -41 -4 -5 -36 -192 -50 -284 -28 -187 -26 -650 2 -698 3
-5 7 -23 10 -40 2 -18 9 -48 15 -67 6 -19 12 -41 13 -50 1 -8 4 -22 7 -30 3
-8 16 -44 29 -80 30 -87 103 -240 153 -320 44 -72 158 -227 203 -276 15 -18
38 -42 49 -55 59 -65 257 -243 292 -263 9 -5 25 -18 36 -27 23 -22 226 -158
281 -189 136 -77 170 -95 261 -139 158 -78 346 -154 509 -209 190 -63 286 -92
306 -92 9 0 19 -3 23 -7 3 -4 14 -8 22 -9 28 -4 118 -25 134 -31 8 -3 24 -8
35 -10 11 -2 74 -14 140 -28 66 -13 143 -27 170 -31 28 -3 59 -8 70 -10 26 -6
67 -12 130 -19 28 -3 64 -8 81 -11 18 -3 63 -7 100 -9 38 -2 69 -4 69 -5 0 -7
218 -14 465 -14 262 -1 415 5 560 19 25 3 70 7 101 10 31 2 72 7 90 10 19 3
54 7 79 10 59 7 114 16 189 30 9 1 36 6 61 10 42 7 54 9 105 20 11 3 29 7 40
9 17 4 86 20 135 31 187 45 454 134 630 212 88 39 126 56 140 64 8 4 44 23 80
41 83 41 184 100 188 110 2 5 8 8 14 8 14 0 201 130 298 207 132 106 355 333
419 426 8 12 18 24 21 27 28 24 170 253 217 350 53 111 126 288 123 298 0 1 7
26 15 55 9 28 19 63 21 77 3 14 11 52 19 85 7 33 17 89 21 125 10 83 10 369 1
480 -13 140 -14 154 -21 185 -3 17 -8 48 -11 70 -3 22 -7 49 -9 60 -3 11 -12
58 -21 105 -9 47 -19 92 -21 100 -3 8 -6 17 -6 20 0 3 -9 36 -20 73 -10 38
-19 73 -21 79 -1 6 -26 81 -55 167 -29 86 -54 161 -56 166 -5 18 -53 131 -72
168 -8 16 -14 32 -14 36 0 5 -17 46 -39 92 -21 46 -38 87 -37 90 0 4 -8 17
-19 29 -11 12 -19 25 -19 29 4 14 -107 218 -211 391 -45 74 -88 146 -96 160
-8 14 -16 27 -19 30 -23 21 -144 219 -144 235 1 11 15 50 32 88 18 37 31 70
31 73 0 4 3 10 8 13 5 3 44 85 87 181 43 96 82 182 87 190 5 8 12 22 15 30 3
8 9 24 14 35 4 11 16 40 28 65 11 25 39 92 62 150 23 58 48 119 55 135 13 29
104 270 110 290 1 6 3 15 5 20 1 6 7 19 13 30 10 19 84 224 91 255 4 12 74
234 92 290 3 8 5 16 5 17 0 2 9 33 20 70 11 38 21 77 24 88 3 11 12 45 20 75
8 30 17 64 20 75 3 11 11 47 20 80 8 33 17 78 21 100 3 22 7 42 9 46 2 3 7 20
10 37 10 58 15 87 20 112 3 14 8 41 11 60 2 19 7 46 9 60 3 14 7 43 10 65 3
22 8 51 10 65 13 71 19 206 19 390 1 221 -3 298 -15 306 -5 3 -6 10 -3 18 3 7
-3 48 -12 92 -19 94 -20 95 -26 114 -3 8 -16 44 -28 80 -25 74 -79 189 -97
208 -7 7 -13 17 -13 21 0 4 -8 17 -17 28 -10 11 -29 35 -43 53 -31 41 -33 43
-103 105 -62 54 -122 92 -207 131 -30 13 -64 29 -75 34 -11 5 -40 14 -65 21
-25 6 -52 14 -60 17 -65 23 -266 33 -360 18 -98 -16 -258 -83 -316 -133 -15
-12 -31 -23 -36 -23 -25 0 -268 -262 -268 -289 0 -5 -3 -11 -8 -13 -23 -10
-254 -428 -236 -428 3 0 -2 -12 -11 -27 -68 -121 -246 -715 -291 -973 -4 -21
-15 -74 -19 -90 -1 -3 -5 -27 -10 -55 -5 -27 -9 -52 -10 -55 -1 -3 -4 -18 -8
-35 -3 -16 -9 -46 -11 -65 -3 -19 -7 -44 -10 -55 -7 -35 -24 -144 -30 -190 -2
-11 -6 -40 -9 -65 -4 -25 -9 -58 -11 -75 -2 -16 -5 -30 -6 -30 -1 0 -3 -20 -5
-45 -6 -58 -14 -127 -20 -165 -3 -16 -7 -52 -10 -78 -2 -26 -7 -53 -11 -59 -5
-7 -3 -8 6 -3 9 5 11 4 6 -3 -4 -7 -9 -31 -12 -54 -2 -24 -6 -56 -9 -73 -2
-16 -7 -68 -10 -115 -4 -47 -8 -105 -11 -130 -2 -25 -6 -81 -9 -125 -4 -44 -8
-102 -10 -130 -2 -27 -7 -110 -11 -185 -5 -112 -10 -140 -27 -164 -21 -30 -33
-31 -142 -12 -206 37 -367 54 -570 61 -55 2 -106 4 -112 4 -7 1 28 42 77 92
49 50 92 99 95 110 4 10 11 19 16 19 5 0 9 6 9 14 0 8 3 16 8 18 11 5 68 123
78 163 54 216 11 406 -144 624 -59 83 -251 277 -362 365 -90 71 -382 269 -400
271 -3 0 -23 12 -45 26 -22 14 -55 32 -72 40 -18 8 -33 18 -33 23 0 4 -7 3
-15 -4 -8 -7 -15 -18 -15 -24 0 -7 36 -70 81 -141 119 -191 291 -522 303 -585
2 -7 26 -69 37 -95 4 -11 18 -51 29 -90 12 -38 25 -81 30 -95 10 -31 38 -153
45 -200 2 -19 8 -57 12 -85 9 -58 10 -342 1 -398 -3 -21 -9 -42 -14 -47 -5 -4
-58 -11 -119 -14 -112 -6 -158 -10 -255 -22 -30 -4 -68 -8 -85 -10 -16 -2 -43
-6 -60 -9 -16 -2 -48 -7 -70 -10 -22 -4 -51 -8 -65 -11 -127 -25 -159 -25
-181 -3 -10 10 -19 25 -19 32 -1 6 -2 244 -5 527 -4 498 -5 558 -20 775 -4 55
-8 123 -10 150 -3 54 -13 159 -20 215 -3 19 -7 60 -10 91 -2 31 -6 69 -9 85
-2 16 -7 52 -11 79 -3 28 -10 79 -16 115 -5 36 -12 81 -14 100 -3 19 -8 49
-12 65 -3 17 -8 40 -9 53 -5 30 -11 63 -17 87 -7 31 -19 104 -17 107 1 2 -3
15 -9 31 -6 15 -13 38 -15 50 -5 24 -32 133 -47 187 -5 19 -12 44 -14 54 -9
41 -69 215 -108 316 -48 124 -139 310 -196 398 -23 34 -41 65 -41 67 0 3 -8
14 -17 24 -28 31 -43 50 -43 55 0 21 -170 189 -254 251 -73 53 -207 125 -261
140 -34 9 -32 9 -100 25 -47 12 -277 24 -286 16z"/>
</g>
</svg>
